<svg width="28" height="28" viewBox="0 0 28 28" fill="none" xmlns="http://www.w3.org/2000/svg">
<path d="M2.33331 11.0833C2.33334 9.78507 2.72717 8.51735 3.4628 7.44761C4.19843 6.37787 5.24125 5.55644 6.45352 5.09181C7.6658 4.62717 8.9905 4.54119 10.2527 4.84522C11.5148 5.14926 12.6551 5.829 13.5228 6.79467C13.5839 6.86002 13.6578 6.91212 13.7399 6.94774C13.822 6.98336 13.9105 7.00174 14 7.00174C14.0895 7.00174 14.178 6.98336 14.2601 6.94774C14.3421 6.91212 14.416 6.86002 14.4771 6.79467C15.3422 5.82272 16.4827 5.13727 17.7469 4.82954C19.0111 4.52181 20.3391 4.60641 21.554 5.07207C22.7689 5.53773 23.8133 6.36237 24.5479 7.43623C25.2826 8.51008 25.6728 9.78223 25.6666 11.0833C25.6666 13.755 23.9166 15.75 22.1666 17.5L15.7593 23.6985C15.5419 23.9482 15.2739 24.1487 14.973 24.2869C14.6722 24.425 14.3454 24.4975 14.0143 24.4996C13.6833 24.5017 13.3556 24.4333 13.053 24.299C12.7504 24.1647 12.4798 23.9676 12.2593 23.7207L5.83331 17.5C4.08331 15.75 2.33331 13.7667 2.33331 11.0833Z" stroke="#0A6794" stroke-width="2.33333" stroke-linecap="round" stroke-linejoin="round"/>
</svg>
