<svg width="48" height="48" viewBox="0 0 48 48" fill="none" xmlns="http://www.w3.org/2000/svg">
<g clip-path="url(#clip0_237_774)">
<path d="M22.153 32.888L21.7478 43.244L21.6941 43.864L10.3469 43.048C9.66456 42.9744 9.02632 42.6621 8.53633 42.162C8.00127 41.6564 7.57356 41.0399 7.28065 40.352L7.26721 40.318C7.07462 39.8319 6.94423 39.3215 6.87937 38.8L6.87553 38.77C6.81658 38.1449 6.85549 37.5141 6.99073 36.902L6.98305 36.94C7.11873 36.2453 7.22433 35.7293 7.29985 35.392C7.49569 34.656 7.69345 34.058 7.92193 33.474L7.88161 33.592C8.18753 32.7293 8.35841 32.234 8.39425 32.106C9.80097 32.3287 14.3859 32.59 22.1491 32.89L22.153 32.888ZM11.6947 16.398L16.5581 27.064L12.5875 24.476C11.5349 25.7209 10.5577 27.0327 9.66145 28.404L9.57697 28.542C8.90113 29.548 8.24833 30.702 7.68385 31.906L7.61857 32.06C7.18593 33.0507 6.83073 33.9373 6.55297 34.72C6.33684 35.2728 6.17287 35.8461 6.06337 36.432L6.05377 36.494L5.94625 37.084L0.814088 27.038C0.514174 26.5716 0.345877 26.027 0.328328 25.466V25.46C0.29064 25.0049 0.346942 24.5466 0.493448 24.116L0.487688 24.14L0.702728 23.634C1.33633 22.4527 2.36289 20.692 3.78241 18.352L0.00576782 15.922L11.6947 16.398ZM44.9491 30.948L39.8784 41.05C39.6764 41.5715 39.3378 42.0233 38.9011 42.354L38.8934 42.36C38.5542 42.6385 38.1592 42.834 37.7376 42.932L37.7184 42.936L37.2327 43.048C35.9539 43.1787 33.9821 43.2887 31.3171 43.378L31.5322 48L25.319 37.672L31.0234 27.484L31.2115 32.352C33.7973 32.6456 36.4036 32.6898 38.9971 32.484L38.855 32.494C40.4647 32.3875 42.0539 32.0614 43.5821 31.524L43.4515 31.564L44.9491 30.948ZM23.7485 4.94399C22.9037 6.12533 20.5171 10.206 16.5888 17.186L8.03137 11.924L7.51873 11.594L13.5974 1.57599C13.9814 0.979992 14.5382 0.533992 15.193 0.311992L15.2141 0.305992C15.9113 0.0385817 16.6586 -0.0565827 17.3971 0.0279923L17.376 0.0259923C17.8573 0.0726589 18.304 0.186659 18.7162 0.367992L18.6874 0.355992C19.1232 0.539992 19.4918 0.739992 19.8413 0.967992L19.8106 0.949992C20.2291 1.24199 20.5958 1.54799 20.9338 1.88199L20.9299 1.87799C21.3626 2.29133 21.687 2.61466 21.9034 2.84799C22.1197 3.08133 22.4442 3.45133 22.8768 3.95799C23.3133 4.46466 23.6038 4.79333 23.7485 4.94399ZM41.4432 13.582L47.1706 23.798C47.4962 24.466 47.6137 25.2232 47.5066 25.964L47.5085 25.944C47.4071 26.6942 47.1496 27.4123 46.7539 28.048L46.7654 28.028C46.5201 28.4161 46.222 28.7651 45.8803 29.064L45.8727 29.07C45.5621 29.3527 45.2301 29.6088 44.88 29.836L44.8455 29.856C44.473 30.086 44.0391 30.294 43.5859 30.458L43.5341 30.474C42.985 30.6807 42.5626 30.8307 42.2669 30.924C41.9712 31.0173 41.5072 31.1487 40.8749 31.318L39.6326 31.648C39.0195 30.2973 36.633 26.2073 32.473 19.378L40.9286 13.89L41.4432 13.582ZM37.5802 7.22199L41.4163 4.88599L35.4739 15.384L24.1517 14.822L28.2317 12.402C27.6277 10.7255 26.9164 9.09318 26.1024 7.51599L26.2061 7.73599C25.5938 6.49736 24.8936 5.30806 24.1114 4.17799L24.1651 4.25999C23.5443 3.38666 22.9632 2.63599 22.4218 2.00799C22.0369 1.54328 21.6184 1.11001 21.1699 0.711992L21.1546 0.697992L20.6957 0.331992L31.6301 0.359992C32.1752 0.298909 32.7256 0.404544 33.2141 0.663992L33.1987 0.655992C33.6147 0.854659 33.9667 1.12199 34.2547 1.45799L34.2566 1.46199L34.5542 1.88399C35.257 3.02266 36.2656 4.80199 37.5802 7.22199Z" fill="#2C473E"/>
</g>
<defs>
<clipPath id="clip0_237_774">
<rect width="48" height="48" fill="white"/>
</clipPath>
</defs>
</svg>
