<svg width="48" height="48" viewBox="0 0 48 48" fill="none" xmlns="http://www.w3.org/2000/svg">
<path d="M38.5144 29.8257C36.7161 30.9189 34.6507 31.4938 32.5463 31.487C30.7832 31.4731 29.0401 31.1125 27.4163 30.4257C26.1647 32.1926 25.4949 34.3055 25.5 36.4707V42.0001C25.5005 42.2057 25.4586 42.4093 25.3771 42.5981C25.2956 42.7868 25.1761 42.9568 25.0261 43.0975C24.8762 43.2382 24.6988 43.3465 24.5052 43.4158C24.3116 43.485 24.1058 43.5137 23.9006 43.5001C23.5151 43.4666 23.1565 43.2885 22.8967 43.0016C22.6369 42.7147 22.4952 42.3402 22.5 41.9532V39.6207L15.2588 32.3795C14.1823 32.7811 13.0439 32.9911 11.895 33.0001C10.3134 33.0042 8.76131 32.5714 7.41001 31.7495C3.32438 29.267 1.12501 23.5539 1.55063 16.4607C1.57206 16.0938 1.7275 15.7475 1.98742 15.4875C2.24735 15.2276 2.59367 15.0722 2.96063 15.0507C10.0538 14.6326 15.7669 16.8245 18.2419 20.9101C19.2143 22.5115 19.6388 24.386 19.4513 26.2501C19.4396 26.3945 19.3864 26.5325 19.298 26.6473C19.2096 26.7621 19.0898 26.8489 18.9531 26.8971C18.8165 26.9453 18.6688 26.9528 18.5279 26.9189C18.3871 26.8849 18.2591 26.8109 18.1594 26.7057L14.5594 22.937C14.2758 22.6676 13.8982 22.5196 13.507 22.5246C13.1159 22.5296 12.7422 22.6872 12.4656 22.9638C12.189 23.2404 12.0314 23.6141 12.0263 24.0053C12.0213 24.3964 12.1693 24.774 12.4388 25.0576L22.5413 35.417C22.5525 35.2707 22.5656 35.1245 22.5806 34.9801C22.9087 32.199 24.1358 29.6011 26.0756 27.5814L35.5613 17.5576C35.8427 17.2764 36.0009 16.8949 36.0011 16.497C36.0013 16.0992 35.8434 15.7175 35.5622 15.4361C35.281 15.1546 34.8995 14.9964 34.5016 14.9962C34.1037 14.996 33.7221 15.1539 33.4406 15.4351L24.2531 25.1514C24.1612 25.2488 24.0448 25.3198 23.9161 25.357C23.7874 25.3942 23.6511 25.3963 23.5213 25.363C23.3916 25.3297 23.2731 25.2622 23.1782 25.1676C23.0834 25.073 23.0156 24.9548 22.9819 24.8251C22.0931 21.5476 22.485 18.2851 24.1819 15.4839C27.5306 9.95637 35.3231 6.99762 45.0281 7.56762C45.3951 7.58905 45.7414 7.74448 46.0013 8.0044C46.2613 8.26433 46.4167 8.61065 46.4381 8.97762C47.0006 18.6845 44.0419 26.477 38.5144 29.8257Z" fill="#6A8E4E"/>
</svg>
