<svg width="30" height="30" viewBox="0 0 30 30" fill="none" xmlns="http://www.w3.org/2000/svg">
<path d="M0 15C0 6.71573 6.71573 0 15 0C23.2843 0 30 6.71573 30 15C30 23.2843 23.2843 30 15 30C6.71573 30 0 23.2843 0 15Z" fill="white" fill-opacity="0.9"/>
<path fill-rule="evenodd" clip-rule="evenodd" d="M11.3863 8.13367L20.5666 13.7319C20.699 13.8126 20.8084 13.9255 20.8843 14.06C20.9602 14.1945 21 14.3459 21 14.5C21 14.6541 20.9602 14.8055 20.8843 14.94C20.8084 15.0745 20.699 15.1874 20.5666 15.2681L11.3863 20.8663C11.2485 20.9504 11.0905 20.9965 10.9287 20.9998C10.7668 21.0032 10.607 20.9637 10.4658 20.8854C10.3245 20.8071 10.2068 20.6929 10.125 20.5545C10.0431 20.4162 9.99995 20.2587 10 20.0983V8.90174C9.99995 8.74134 10.0431 8.58383 10.125 8.44547C10.2068 8.3071 10.3245 8.19289 10.4658 8.11462C10.607 8.03635 10.7668 7.99685 10.9287 8.0002C11.0905 8.00355 11.2485 8.04962 11.3863 8.13367Z" fill="#2C473E"/>
</svg>
