<svg width="168" height="89" viewBox="0 0 168 89" fill="none" xmlns="http://www.w3.org/2000/svg">
<mask id="mask0_775_3378" style="mask-type:luminance" maskUnits="userSpaceOnUse" x="33" y="0" width="21" height="34">
<path d="M33.0692 0H53.7374V33.9879H33.0692V0Z" fill="white"/>
</mask>
<g mask="url(#mask0_775_3378)">
<mask id="mask1_775_3378" style="mask-type:luminance" maskUnits="userSpaceOnUse" x="23" y="-2" width="39" height="38">
<path d="M23.8797 1.91422L58.1132 -1.91078L61.8235 31.2965L27.59 35.1215L23.8797 1.91422Z" fill="white"/>
</mask>
<g mask="url(#mask1_775_3378)">
<mask id="mask2_775_3378" style="mask-type:luminance" maskUnits="userSpaceOnUse" x="23" y="-2" width="39" height="38">
<path d="M23.8797 1.91422L58.1132 -1.91078L61.8235 31.2965L27.59 35.1215L23.8797 1.91422Z" fill="white"/>
</mask>
<g mask="url(#mask2_775_3378)">
<path d="M40.8845 0.0144539C49.6916 8.63517 60.9785 24.2276 46.1556 33.2162C46.6203 26.4257 44.3075 19.8663 42.5797 13.4199L42.3106 33.6451C26.7001 27.1108 34.4595 10.4347 40.8845 0.0144539Z" fill="#F5F5F5"/>
</g>
</g>
</g>
<mask id="mask3_775_3378" style="mask-type:luminance" maskUnits="userSpaceOnUse" x="0" y="55" width="86" height="34">
<path d="M0 55.5745H85.5703V88.6436H0V55.5745Z" fill="white"/>
</mask>
<g mask="url(#mask3_775_3378)">
<mask id="mask4_775_3378" style="mask-type:luminance" maskUnits="userSpaceOnUse" x="0" y="55" width="86" height="34">
<path d="M85.8879 55.5745H0V88.6436H85.8879V55.5745Z" fill="white"/>
</mask>
<g mask="url(#mask4_775_3378)">
<mask id="mask5_775_3378" style="mask-type:luminance" maskUnits="userSpaceOnUse" x="0" y="55" width="86" height="34">
<path d="M0.45929 55.6106H85.5703V88.5703H0.45929V55.6106Z" fill="white"/>
</mask>
<g mask="url(#mask5_775_3378)">
<path d="M79.3412 81.0546C78.0997 80.9971 76.1263 80.2651 74.6606 80.0105C64.4284 77.6726 54.8156 84.3505 45.4019 87.4525C43.457 88.1001 41.1446 88.6939 39.0867 88.4373C37.9868 88.2957 37.0575 87.9027 36.0995 87.3663C23.8923 79.9836 12.5606 71.8076 2.52611 61.6316C1.08903 60.3361 -0.547209 57.715 1.31329 56.2203C3.03386 55.0347 5.4003 55.9389 6.97911 57.0367C10.5584 59.4608 17.2684 63.8311 20.3973 66.5923C21.3554 67.7763 21.2711 69.2709 21.8918 70.8211C22.3134 71.9496 23.2715 73.1318 24.1757 73.6664C26.9943 75.1035 33.4512 74.7394 37.847 74.8238C40.8914 74.8238 43.2596 74.6819 46.0516 73.9785C47.2069 73.6413 48.6441 73.3578 49.6306 72.85C49.7436 72.7084 48.9255 72.737 47.7719 72.737C41.7688 72.737 33.9879 72.7281 28.6036 72.6816C26.7611 72.6636 26.8005 72.737 26.038 72.3998C25.2217 72.0067 24.574 71.2713 24.1219 70.4549C23.2213 68.8204 23.6716 66.5941 25.1087 65.4387C27.2796 63.6354 35.4839 63.8597 39.0616 63.4094C45.5724 63.1528 50.901 59.4356 57.1284 58.108C66.0918 56.2493 74.6316 59.5738 82.8631 62.5069C83.7081 62.8156 85.3732 63.2947 85.4862 63.9441C85.5703 64.2527 85.4862 64.6223 85.3732 64.931C84.4993 67.3836 82.2709 73.6702 80.8913 77.6154C80.468 78.8283 80.1307 79.8148 79.9048 80.3801C79.7914 80.6598 79.6247 80.9723 79.3126 81.0009V81.0563H79.3412V81.0546Z" fill="#F5F5F5"/>
</g>
</g>
</g>
<mask id="mask6_775_3378" style="mask-type:luminance" maskUnits="userSpaceOnUse" x="41" y="20" width="7" height="44">
<path d="M41.3365 20.6682H47.3072V63.3826H41.3365V20.6682Z" fill="white"/>
</mask>
<g mask="url(#mask6_775_3378)">
<mask id="mask7_775_3378" style="mask-type:luminance" maskUnits="userSpaceOnUse" x="21" y="21" width="45" height="45">
<path d="M21.4702 42.2604L43.6382 21.0826L65.7687 44.2448L43.6007 65.4243L21.4702 42.2604Z" fill="white"/>
</mask>
<g mask="url(#mask7_775_3378)">
<mask id="mask8_775_3378" style="mask-type:luminance" maskUnits="userSpaceOnUse" x="21" y="21" width="45" height="45">
<path d="M21.4702 42.2604L43.6382 21.0826L65.7687 44.2448L43.6007 65.4243L21.4702 42.2604Z" fill="white"/>
</mask>
<g mask="url(#mask8_775_3378)">
<path d="M46.324 62.848C44.817 62.9806 43.0946 63.2462 41.5893 63.2751C41.55 63.2768 41.5266 63.2283 41.5552 63.1979C42.0523 62.663 42.2714 61.6279 42.4147 61.1811C46.6634 46.9575 42.847 34.456 43.6706 21.063C44.8459 31.3306 47.0974 42.1277 47.2713 52.4618C47.3306 55.2841 47.0237 58.3051 46.6272 61.1435C46.6272 61.1435 46.4532 62.3061 46.3223 62.848H46.324Z" fill="#F5F5F5"/>
</g>
</g>
</g>
<mask id="mask9_775_3378" style="mask-type:luminance" maskUnits="userSpaceOnUse" x="47" y="32" width="24" height="25">
<path d="M47.7667 32.2655H70.272V56.034H47.7667V32.2655Z" fill="white"/>
</mask>
<g mask="url(#mask9_775_3378)">
<path d="M70.0512 32.2834C70.2038 33.6754 69.8845 35.4391 69.6316 36.8153C67.7691 47.3072 63.2875 59.9145 49.9231 54.7116L62.8659 40.9276L48.9327 53.2173C47.2713 49.5232 47.4563 44.4708 50.0075 41.096C54.4728 35.1539 63.8076 35.1863 70.0512 32.2655V32.2834Z" fill="#F5F5F5"/>
</g>
<mask id="mask10_775_3378" style="mask-type:luminance" maskUnits="userSpaceOnUse" x="16" y="36" width="28" height="22">
<path d="M16.0753 36.7436H43.6331V57.4119H16.0753V36.7436Z" fill="white"/>
</mask>
<g mask="url(#mask10_775_3378)">
<mask id="mask11_775_3378" style="mask-type:luminance" maskUnits="userSpaceOnUse" x="16" y="31" width="31" height="35">
<path d="M16.4485 36.8583L39.1315 31.013L46.5232 59.7009L23.8402 65.5462L16.4485 36.8583Z" fill="white"/>
</mask>
<g mask="url(#mask11_775_3378)">
<mask id="mask12_775_3378" style="mask-type:luminance" maskUnits="userSpaceOnUse" x="16" y="31" width="31" height="35">
<path d="M16.4485 36.8583L39.1315 31.013L46.5232 59.7009L23.8402 65.5462L16.4485 36.8583Z" fill="white"/>
</mask>
<g mask="url(#mask12_775_3378)">
<path d="M16.4503 36.8673C23.5298 38.116 33.0638 35.7137 39.0688 40.6727C42.3123 43.3585 43.7622 48.3585 43.0695 52.4367L25.9035 43.7047L42.63 54.1484C28.9337 64.1111 20.3542 47.8311 16.4503 36.8673Z" fill="#F5F5F5"/>
</g>
</g>
</g>
<mask id="mask13_775_3378" style="mask-type:luminance" maskUnits="userSpaceOnUse" x="112" y="47" width="32" height="11">
<path d="M143.759 47.7667H112.068V57.4119H143.759V47.7667Z" fill="white"/>
</mask>
<g mask="url(#mask13_775_3378)">
<path d="M113.54 50.2958C113.73 50.2958 113.87 50.2527 113.956 50.1666C114.046 50.0767 114.092 49.9334 114.092 49.736C114.092 49.5458 114.046 49.4112 113.956 49.334C113.87 49.2586 113.726 49.2193 113.525 49.2193H113.36V50.2958H113.54ZM114.43 49.736C114.43 49.9799 114.354 50.1594 114.207 50.2741C114.063 50.3891 113.866 50.4463 113.619 50.4463H113.36V51.2L113.719 51.2431V51.3364H112.765V51.2431L113.037 51.2V49.1976L112.743 49.1545V49.0684H113.597C114.152 49.0684 114.43 49.2909 114.43 49.736Z" fill="white"/>
<path d="M114.67 51.2431L114.964 51.2V49.1976L114.67 49.1545V49.0684H116.378V49.6068H116.263L116.205 49.2406C116.143 49.2317 116.066 49.2265 115.976 49.2265C115.884 49.2227 115.778 49.2193 115.66 49.2193H115.287V50.1091H115.897L115.954 49.8362H116.062V50.5324H115.954L115.897 50.2599H115.287V51.1855H115.732C115.879 51.1855 116.001 51.1838 116.098 51.1783C116.193 51.1748 116.263 51.1676 116.306 51.1569L116.406 50.7336H116.514L116.485 51.3364H114.67V51.2431Z" fill="white"/>
<path d="M117.932 49.1762H117.939C117.741 49.1762 117.589 49.2172 117.479 49.2982C117.368 49.3805 117.293 49.4973 117.25 49.6499C117.207 49.8042 117.185 49.9871 117.185 50.2024C117.185 50.5613 117.244 50.8249 117.365 50.9919C117.483 51.1549 117.675 51.2358 117.939 51.2358C118.197 51.2358 118.387 51.1549 118.513 50.9919C118.631 50.8304 118.692 50.5665 118.692 50.2024C118.692 49.84 118.629 49.5762 118.505 49.4129C118.38 49.2551 118.19 49.1762 117.932 49.1762ZM117.939 51.365C117.569 51.365 117.293 51.2644 117.106 51.0636C116.923 50.8628 116.833 50.5755 116.833 50.2024C116.833 49.4273 117.201 49.0398 117.939 49.0398C118.312 49.0398 118.588 49.1404 118.771 49.3412C118.958 49.5386 119.051 49.8256 119.051 50.2024C119.051 50.7532 118.85 51.1118 118.448 51.2789L118.534 51.3795C118.635 51.5031 118.721 51.591 118.793 51.6447C118.864 51.7022 118.931 51.7308 118.994 51.7308L119.13 51.7239V51.8314C119.115 51.8404 119.087 51.8493 119.044 51.86C119.001 51.8689 118.954 51.8762 118.907 51.8817C118.864 51.8907 118.829 51.8962 118.8 51.8962C118.703 51.8962 118.624 51.8779 118.563 51.8459C118.505 51.8169 118.45 51.7777 118.398 51.7308C118.335 51.6736 118.229 51.5479 118.082 51.3578C118.057 51.3612 118.034 51.365 118.01 51.365C117.985 51.365 117.962 51.365 117.939 51.365Z" fill="white"/>
<path d="M120.476 51.1783C120.686 51.1783 120.849 51.128 120.964 51.0278C121.082 50.9272 121.143 50.7746 121.143 50.5682V49.1976L120.842 49.1545V49.0684H121.617V49.1545L121.323 49.1976V50.5541C121.323 50.8321 121.246 51.0384 121.093 51.1711C120.944 51.3057 120.729 51.3722 120.448 51.3722C120.169 51.3722 119.949 51.3075 119.787 51.1783C119.629 51.0491 119.55 50.8535 119.55 50.5899V49.1976L119.256 49.1545V49.0684H120.167V49.1545L119.873 49.1976V50.5613C119.873 50.9737 120.074 51.1783 120.476 51.1783Z" fill="white"/>
<path d="M121.787 51.2431L122.081 51.2V49.1976L121.787 49.1545V49.0684H123.494V49.6068H123.38L123.322 49.2406C123.259 49.2317 123.182 49.2265 123.093 49.2265C123.001 49.2227 122.895 49.2193 122.777 49.2193H122.404V50.1091H123.014L123.071 49.8362H123.179V50.5324H123.071L123.014 50.2599H122.404V51.1855H122.849C122.996 51.1855 123.118 51.1838 123.215 51.1783C123.31 51.1748 123.38 51.1676 123.423 51.1569L123.523 50.7336H123.631L123.602 51.3364H121.787V51.2431Z" fill="white"/>
<path d="M125.752 49.1976L125.45 49.1545V49.0684H126.225V49.1545L125.931 49.1976V51.3364H125.766L124.367 49.2982V51.2L124.675 51.2431V51.3364H123.9V51.2431L124.194 51.2V49.1976L123.9 49.1545V49.0684H124.589L125.752 50.7477V49.1976Z" fill="white"/>
<path d="M127.083 51.2431V51.3364H126.337V51.2431L126.595 51.2L127.363 49.0471H127.686L128.49 51.2L128.777 51.2431V51.3364H127.823V51.2431L128.124 51.2L127.902 50.5469H127.005L126.775 51.2L127.083 51.2431ZM127.442 49.2909L127.055 50.396H127.844L127.442 49.2909Z" fill="white"/>
<path d="M129.736 51.3722V51.365C129.61 51.365 129.486 51.3543 129.362 51.3364C129.237 51.313 129.129 51.2823 129.04 51.243V50.7263H129.147L129.212 51.0278C129.235 51.0619 129.276 51.096 129.334 51.128C129.391 51.1569 129.452 51.1821 129.521 51.2C129.592 51.2196 129.659 51.2286 129.721 51.2286C129.874 51.2286 129.996 51.191 130.088 51.1139C130.183 51.0384 130.231 50.9254 130.231 50.7766C130.231 50.6867 130.211 50.6151 130.174 50.5613C130.134 50.5038 130.084 50.459 130.023 50.4249C129.965 50.387 129.901 50.3584 129.829 50.3388C129.761 50.3154 129.695 50.292 129.628 50.2668C129.528 50.2348 129.431 50.1935 129.341 50.1449C129.249 50.0929 129.176 50.0264 129.119 49.9441C129.061 49.8631 129.032 49.7539 129.032 49.614C129.032 49.4811 129.065 49.3736 129.133 49.2909C129.205 49.2048 129.298 49.1438 129.413 49.1042C129.531 49.0612 129.66 49.0398 129.8 49.0398C129.981 49.0398 130.181 49.065 130.396 49.1115V49.5851H130.288L130.231 49.3054C130.116 49.2245 129.973 49.1835 129.8 49.1835C129.671 49.1835 129.558 49.2103 129.463 49.2623C129.366 49.3161 129.319 49.4039 129.319 49.5279C129.319 49.6047 129.336 49.6678 129.37 49.7143C129.408 49.7629 129.452 49.8042 129.506 49.8362C129.564 49.8758 129.628 49.9062 129.7 49.9296C129.772 49.9547 129.843 49.9782 129.915 50.0016C130.019 50.0408 130.118 50.0856 130.21 50.1376C130.299 50.1862 130.375 50.2527 130.432 50.3388C130.489 50.4249 130.518 50.5396 130.518 50.6833C130.518 50.9127 130.446 51.0849 130.303 51.2C130.163 51.3147 129.974 51.3722 129.736 51.3722Z" fill="white"/>
<path d="M132.378 51.2431V51.3364H131.631V51.2431L131.89 51.2L132.658 49.0471H132.98L133.784 51.2L134.071 51.2431V51.3364H133.117V51.2431L133.418 51.2L133.196 50.5469H132.299L132.069 51.2L132.378 51.2431ZM132.737 49.2909L132.349 50.396H133.139L132.737 49.2909Z" fill="white"/>
<path d="M134.592 50.2238C134.592 50.4249 134.621 50.6023 134.678 50.7549C134.736 50.9093 134.824 51.0278 134.944 51.1139C135.062 51.1962 135.218 51.2358 135.41 51.2358C135.534 51.2358 135.655 51.2213 135.769 51.1928C135.884 51.1604 135.974 51.119 136.042 51.0708L136.107 50.7263H136.222L136.207 51.2644C135.963 51.3364 135.698 51.3722 135.41 51.3722C135.166 51.3722 134.955 51.3271 134.779 51.2358C134.607 51.1459 134.472 51.0167 134.377 50.8483C134.286 50.6761 134.241 50.468 134.241 50.2238C134.241 49.8362 134.338 49.5421 134.535 49.3412C134.73 49.1404 135.025 49.0398 135.418 49.0398C135.533 49.0398 135.651 49.047 135.776 49.0612C135.906 49.0756 136.037 49.0973 136.171 49.1259L136.185 49.6209H136.071L136.02 49.3268C135.949 49.2837 135.859 49.2479 135.755 49.2193C135.655 49.1904 135.543 49.1762 135.425 49.1762C135.218 49.1762 135.053 49.2193 134.93 49.3054C134.81 49.3877 134.723 49.5062 134.671 49.664C134.617 49.8183 134.592 50.005 134.592 50.2238ZM135.389 51.4439C135.479 51.4528 135.556 51.4797 135.619 51.5228C135.685 51.5696 135.719 51.6395 135.719 51.7308C135.719 51.8404 135.678 51.9248 135.597 51.9823C135.514 52.0433 135.418 52.0753 135.303 52.0753C135.217 52.0753 135.138 52.0629 135.066 52.0395V51.9103C135.084 51.9141 135.116 51.9192 135.159 51.9248C135.206 51.9337 135.242 51.9392 135.267 51.9392C135.324 51.9392 135.369 51.921 135.403 51.8889C135.441 51.86 135.461 51.8169 135.461 51.7598C135.461 51.6916 135.434 51.6447 135.382 51.6161C135.328 51.5875 135.269 51.5696 135.202 51.5658L135.274 51.3075H135.418L135.389 51.4439Z" fill="white"/>
<path d="M137.654 49.1762V49.1835C137.456 49.1835 137.304 49.2245 137.194 49.3054C137.083 49.3826 137.008 49.4973 136.965 49.6499C136.922 49.8042 136.9 49.9871 136.9 50.2024C136.9 50.5665 136.961 50.8304 137.087 50.9919C137.205 51.1549 137.395 51.2358 137.654 51.2358C137.849 51.2358 138.001 51.1962 138.113 51.1139C138.222 51.0278 138.299 50.9093 138.342 50.7549C138.389 50.5972 138.414 50.4139 138.414 50.2024C138.414 49.84 138.351 49.5762 138.228 49.4129C138.108 49.2551 137.915 49.1762 137.654 49.1762ZM137.654 51.3722C137.284 51.3722 137.008 51.2716 136.821 51.0708C136.638 50.8696 136.548 50.581 136.548 50.2024C136.548 49.4325 136.916 49.0471 137.654 49.0471C138.027 49.0471 138.303 49.1473 138.486 49.3485C138.672 49.5458 138.766 49.8293 138.766 50.2024C138.766 50.581 138.672 50.8696 138.486 51.0708C138.303 51.2716 138.027 51.3722 137.654 51.3722ZM137.94 48.6736V48.6809C138.001 48.6809 138.043 48.6647 138.062 48.6306C138.086 48.593 138.102 48.5427 138.113 48.4801H138.199C138.179 48.7529 138.066 48.8889 137.862 48.8889C137.804 48.8889 137.75 48.8748 137.704 48.8459C137.661 48.8173 137.621 48.7921 137.589 48.767C137.564 48.7529 137.542 48.7384 137.524 48.7239C137.505 48.7098 137.485 48.6988 137.467 48.6881C137.428 48.6595 137.39 48.6451 137.352 48.6451C137.289 48.6451 137.248 48.6647 137.23 48.7026C137.21 48.7419 137.196 48.7887 137.187 48.8459H137.101C137.115 48.5734 137.225 48.437 137.431 48.437C137.492 48.437 137.546 48.4515 137.589 48.4801C137.632 48.5052 137.671 48.5303 137.711 48.5589C137.729 48.5734 137.749 48.5875 137.768 48.602C137.792 48.6165 137.813 48.6289 137.833 48.6378C137.865 48.663 137.901 48.6736 137.94 48.6736Z" fill="white"/>
<path d="M139.007 51.2431L139.301 51.2V49.1976L139.007 49.1545V49.0684H140.715V49.6068H140.6L140.543 49.2406C140.48 49.2317 140.403 49.2265 140.313 49.2265C140.222 49.2227 140.116 49.2193 139.997 49.2193H139.624V50.1091H140.234L140.291 49.8362H140.399V50.5324H140.291L140.234 50.2599H139.624V51.1855H140.069C140.216 51.1855 140.338 51.1838 140.435 51.1783C140.53 51.1748 140.6 51.1676 140.643 51.1569L140.744 50.7336H140.851L140.823 51.3364H139.007V51.2431Z" fill="white"/>
<path d="M141.953 51.3722V51.365C141.827 51.365 141.703 51.3543 141.58 51.3364C141.454 51.313 141.347 51.2823 141.257 51.243V50.7263H141.364L141.429 51.0278C141.452 51.0619 141.494 51.096 141.551 51.128C141.608 51.1569 141.669 51.1821 141.738 51.2C141.81 51.2196 141.876 51.2286 141.939 51.2286C142.091 51.2286 142.213 51.191 142.305 51.1139C142.4 51.0384 142.448 50.9254 142.448 50.7766C142.448 50.6867 142.428 50.6151 142.391 50.5613C142.351 50.5038 142.301 50.459 142.24 50.4249C142.183 50.387 142.118 50.3584 142.046 50.3388C141.978 50.3154 141.912 50.292 141.845 50.2668C141.745 50.2348 141.648 50.1935 141.558 50.1449C141.467 50.0929 141.393 50.0264 141.336 49.9441C141.278 49.8631 141.25 49.7539 141.25 49.614C141.25 49.4811 141.282 49.3736 141.35 49.2909C141.422 49.2048 141.515 49.1438 141.63 49.1042C141.748 49.0612 141.877 49.0398 142.018 49.0398C142.199 49.0398 142.398 49.065 142.613 49.1115V49.5851H142.505L142.448 49.3054C142.333 49.2245 142.19 49.1835 142.018 49.1835C141.888 49.1835 141.775 49.2103 141.68 49.2623C141.583 49.3161 141.537 49.4039 141.537 49.5279C141.537 49.6047 141.553 49.6678 141.587 49.7143C141.625 49.7629 141.669 49.8042 141.723 49.8362C141.781 49.8758 141.845 49.9062 141.917 49.9296C141.989 49.9547 142.061 49.9782 142.132 50.0016C142.236 50.0408 142.335 50.0856 142.426 50.1376C142.516 50.1862 142.591 50.2527 142.649 50.3388C142.707 50.4249 142.735 50.5396 142.735 50.6833C142.735 50.9127 142.663 51.0849 142.52 51.2C142.38 51.3147 142.192 51.3722 141.953 51.3722Z" fill="white"/>
<path d="M114.831 56.1301V56.1373C114.76 56.1569 114.682 56.1766 114.602 56.1945C114.524 56.2141 114.438 56.2303 114.343 56.2448C114.16 56.2734 113.995 56.2878 113.848 56.2878C113.599 56.2878 113.384 56.2431 113.202 56.1514C113.019 56.0619 112.876 55.9289 112.772 55.7567C112.675 55.5844 112.628 55.3802 112.628 55.1397C112.628 54.7574 112.736 54.4649 112.951 54.2641C113.17 54.0595 113.479 53.9554 113.877 53.9554C113.977 53.9554 114.067 53.9592 114.15 53.9627C114.23 53.9733 114.304 53.9844 114.372 53.9985C114.404 54.004 114.453 54.0164 114.515 54.0343C114.582 54.0488 114.663 54.0684 114.76 54.0918V54.6158H114.602L114.566 54.3216C114.517 54.2927 114.469 54.2675 114.422 54.2427C114.374 54.2193 114.324 54.1976 114.272 54.1779C114.16 54.1456 114.049 54.1277 113.934 54.1277C113.676 54.1277 113.484 54.2103 113.36 54.3719C113.24 54.5348 113.181 54.788 113.181 55.1325C113.181 55.4535 113.242 55.6957 113.367 55.8572C113.5 56.0205 113.685 56.1011 113.92 56.1011C114.049 56.1011 114.173 56.0832 114.293 56.044V55.3908L114.006 55.3405V55.2186H115.047V55.3405L114.831 55.3908V56.1301Z" fill="white"/>
<path d="M116.024 55.283V56.0725L116.318 56.1156V56.2448H115.22V56.1156L115.493 56.0725V54.1421L115.198 54.0991V53.9699H116.282C116.621 53.9699 116.872 54.0236 117.036 54.1277C117.197 54.2334 117.279 54.3932 117.279 54.6085C117.279 54.9351 117.125 55.1432 116.82 55.2331L117.43 56.0725L117.674 56.1228V56.2448H116.942L116.304 55.283H116.024ZM116.756 54.6085L116.748 54.6158C116.748 54.4435 116.714 54.325 116.648 54.2568C116.576 54.1904 116.447 54.1566 116.261 54.1566H116.024V55.0967H116.268C116.443 55.0967 116.569 55.0588 116.641 54.9816C116.716 54.91 116.756 54.7863 116.756 54.6085Z" fill="white"/>
<path d="M118.367 56.1228V56.2448H117.678V56.1228L117.843 56.0725L118.655 53.9554H119.142L119.946 56.0725L120.119 56.1228V56.2448H119.107V56.1228L119.372 56.0725L119.157 55.4914H118.281L118.073 56.0725L118.367 56.1228ZM118.726 54.2999L118.353 55.3047H119.092L118.726 54.2999Z" fill="white"/>
<path d="M122.096 54.1421L121.795 54.0991V53.9771H122.598V54.0991L122.311 54.1421V56.2448H122.111L120.711 54.4218V56.0725L121.02 56.1228V56.2448H120.209V56.1228L120.503 56.0725V54.1421L120.209 54.0991V53.9771H120.984L122.096 55.4266V54.1421Z" fill="white"/>
<path d="M124.418 55.1108C124.418 54.7808 124.357 54.542 124.239 54.3932C124.124 54.2406 123.931 54.1635 123.658 54.1635H123.536V56.0512C123.588 56.0563 123.638 56.0618 123.686 56.0653C123.733 56.0653 123.78 56.0653 123.823 56.0653C123.97 56.0653 124.088 56.035 124.174 55.9719C124.255 55.911 124.318 55.8107 124.361 55.6705C124.399 55.5324 124.418 55.346 124.418 55.1108ZM123.787 53.9771V53.9844C124.192 53.9844 124.494 54.0756 124.691 54.2568C124.887 54.4397 124.985 54.7215 124.985 55.1039C124.985 55.4876 124.888 55.7746 124.698 55.9651C124.512 56.1569 124.232 56.252 123.859 56.252L123.098 56.2448H122.71V56.1228L122.997 56.0725V54.1421L122.71 54.0991V53.9771H123.787Z" fill="white"/>
<path d="M125.205 56.1228L125.499 56.0725V54.1421L125.205 54.0991V53.9771H127.142V54.551H126.985L126.934 54.1852C126.866 54.1762 126.787 54.1707 126.698 54.1707C126.606 54.1673 126.5 54.1635 126.382 54.1635H126.03V54.9961H126.626L126.676 54.7449H126.827V55.4411H126.676L126.626 55.1828H126.03V56.0581H126.461C126.604 56.0581 126.723 56.0563 126.82 56.0512C126.915 56.0474 126.985 56.0401 127.028 56.0295L127.128 55.6134H127.286L127.25 56.2448H125.205V56.1228Z" fill="white"/>
<path d="M127.641 55.5486L127.778 55.5414L127.857 55.9075C127.904 55.9613 127.975 56.006 128.072 56.0439C128.167 56.0832 128.268 56.1011 128.373 56.1011C128.698 56.1011 128.862 55.9702 128.862 55.7067C128.862 55.6206 128.829 55.5486 128.768 55.4914C128.706 55.4339 128.607 55.3819 128.474 55.3333C128.377 55.3047 128.295 55.2796 128.223 55.2544C128.155 55.2258 128.101 55.2007 128.058 55.1755C127.972 55.1376 127.896 55.0894 127.835 55.0319C127.778 54.9799 127.731 54.9134 127.699 54.8311C127.665 54.7556 127.649 54.6623 127.649 54.551C127.649 54.3557 127.715 54.2048 127.85 54.0991C127.988 53.995 128.187 53.9413 128.445 53.9413C128.636 53.9413 128.847 53.9661 129.077 54.0129V54.5582H128.926L128.847 54.2427C128.732 54.1618 128.598 54.1204 128.445 54.1204C128.306 54.1204 128.201 54.1473 128.13 54.1996C128.052 54.2534 128.015 54.3323 128.015 54.4363C128.015 54.5135 128.045 54.5779 128.108 54.6302C128.174 54.684 128.273 54.7305 128.402 54.7735C128.661 54.8596 128.836 54.9351 128.933 54.9961C129.034 55.0587 129.108 55.1359 129.156 55.2258C129.208 55.3171 129.235 55.4249 129.235 55.5486C129.235 56.0329 128.949 56.2754 128.381 56.2806C128.252 56.2806 128.119 56.2682 127.986 56.2448C127.918 56.2358 127.857 56.2234 127.8 56.2089C127.742 56.1945 127.688 56.1783 127.641 56.1586V55.5486Z" fill="white"/>
<path d="M131.13 55.283V56.0725L131.425 56.1156V56.2448H130.327V56.1156L130.599 56.0725V54.1421L130.305 54.0991V53.9699H131.389C131.728 53.9699 131.979 54.0236 132.142 54.1277C132.304 54.2334 132.386 54.3932 132.386 54.6085C132.386 54.9351 132.232 55.1432 131.927 55.2331L132.537 56.0725L132.781 56.1228V56.2448H132.049L131.41 55.283H131.13ZM131.862 54.6085L131.855 54.6158C131.855 54.4435 131.821 54.325 131.755 54.2568C131.683 54.1904 131.554 54.1566 131.367 54.1566H131.13V55.0967H131.375C131.55 55.0967 131.676 55.0588 131.748 54.9816C131.823 54.91 131.862 54.7863 131.862 54.6085Z" fill="white"/>
<path d="M133.474 56.1228V56.2448H132.785V56.1228L132.95 56.0725L133.761 53.9554H134.249L135.053 56.0725L135.225 56.1228V56.2448H134.213V56.1228L134.479 56.0725L134.264 55.4914H133.388L133.18 56.0725L133.474 56.1228ZM133.833 54.2999L133.46 55.3047H134.199L133.833 54.2999Z" fill="white"/>
<path d="M136.191 56.0725L136.478 56.1228V56.2448H135.366V56.1228L135.66 56.0725V54.1421L135.366 54.0991V53.9771H136.478V54.0991L136.191 54.1421V56.0725ZM135.653 53.7904V53.7329L135.933 53.2737H136.414V53.3312L135.796 53.7904H135.653Z" fill="white"/>
<path d="M136.764 56.0512L138.02 54.1566H137.618C137.489 54.1566 137.378 54.1617 137.288 54.1707C137.196 54.1762 137.124 54.1835 137.072 54.1924L137.022 54.551H136.872V53.9771H138.623V54.1566L137.36 56.0725H137.833C137.963 56.0725 138.088 56.0653 138.214 56.0512C138.275 56.0474 138.328 56.0419 138.371 56.0367C138.418 56.0277 138.454 56.0205 138.479 56.015L138.579 55.5775H138.738L138.687 56.2448H136.764V56.0512Z" fill="white"/>
<path d="M138.964 56.1228L139.258 56.0725V54.1421L138.964 54.0991V53.9771H140.902V54.551H140.744L140.693 54.1852C140.625 54.1762 140.546 54.1707 140.456 54.1707C140.365 54.1673 140.259 54.1635 140.141 54.1635H139.789V54.9961H140.385L140.435 54.7449H140.586V55.4411H140.435L140.385 55.1828H139.789V56.0581H140.22C140.363 56.0581 140.482 56.0563 140.578 56.0512C140.673 56.0474 140.744 56.0401 140.787 56.0295L140.887 55.6134H141.045L141.009 56.2448H138.964V56.1228Z" fill="white"/>
<path d="M141.401 55.5486L141.537 55.5414L141.616 55.9075C141.662 55.9613 141.734 56.006 141.831 56.0439C141.926 56.0832 142.027 56.1011 142.133 56.1011C142.457 56.1011 142.621 55.9702 142.621 55.7067C142.621 55.6206 142.588 55.5486 142.527 55.4914C142.464 55.4339 142.366 55.3819 142.233 55.3333C142.136 55.3047 142.054 55.2796 141.982 55.2544C141.914 55.2258 141.86 55.2007 141.817 55.1755C141.731 55.1376 141.655 55.0894 141.594 55.0319C141.537 54.9799 141.49 54.9134 141.458 54.8311C141.424 54.7556 141.408 54.6623 141.408 54.551C141.408 54.3557 141.474 54.2048 141.609 54.0991C141.747 53.995 141.946 53.9413 142.204 53.9413C142.394 53.9413 142.606 53.9661 142.836 54.0129V54.5582H142.685L142.606 54.2427C142.492 54.1618 142.357 54.1204 142.204 54.1204C142.064 54.1204 141.96 54.1473 141.889 54.1996C141.812 54.2534 141.774 54.3323 141.774 54.4363C141.774 54.5135 141.804 54.5779 141.867 54.6302C141.934 54.684 142.032 54.7305 142.161 54.7735C142.42 54.8596 142.596 54.9351 142.692 54.9961C142.793 55.0587 142.866 55.1359 142.915 55.2258C142.967 55.3171 142.994 55.4249 142.994 55.5486C142.994 56.0329 142.709 56.2754 142.14 56.2806C142.011 56.2806 141.878 56.2682 141.745 56.2448C141.677 56.2358 141.616 56.2234 141.558 56.2089C141.501 56.1945 141.447 56.1783 141.401 56.1586V55.5486Z" fill="white"/>
</g>
<path d="M95.7032 36.2996C95.7032 36.8594 95.5703 37.3885 95.3085 37.8856C95.0446 38.3788 94.6212 38.7826 94.0381 39.0984C93.4587 39.4105 92.7143 39.5648 91.8062 39.5648H89.811V44.0285H88.0098V33.0199H91.8062C92.6529 33.0199 93.367 33.167 93.9519 33.4577C94.5406 33.7502 94.9781 34.1446 95.2654 34.6417C95.5561 35.135 95.7032 35.6878 95.7032 36.2996ZM91.8062 38.0864C92.4952 38.0864 93.0067 37.9321 93.3419 37.62C93.6812 37.3096 93.8517 36.8701 93.8517 36.2996C93.8517 35.094 93.1696 34.4911 91.8062 34.4911H89.811V38.0864H91.8062Z" fill="white"/>
<path d="M101.545 42.5717H105.27V44.0285H99.7442V33.0199H101.545V42.5717Z" fill="white"/>
<path d="M115.718 41.7822H111.111L110.322 44.0285H108.435L112.381 33.0054H114.47L118.41 44.0285H116.515L115.718 41.7822ZM115.216 40.3041L113.422 35.187L111.621 40.3041H115.216Z" fill="white"/>
<path d="M131.479 44.0285H129.671L124.238 35.8115V44.0285H122.437V33.0054H124.238L129.671 41.2083V33.0054H131.479V44.0285Z" fill="white"/>
<path d="M143.271 33.0199V34.4911H140.343V44.0285H138.542V34.4911H135.592V33.0199H143.271Z" fill="white"/>
<path d="M154.125 42.0623H149.977L149.309 44.0285H146.475L150.501 32.9121H153.637L157.656 44.0285H154.792L154.125 42.0623ZM153.429 39.9737L152.051 35.9049L150.687 39.9737H153.429Z" fill="white"/>
<path d="M163.895 35.0795V37.3258H167.526V39.4212H163.895V41.8611H168V44.0285H161.19V32.9121H168V35.0795H163.895ZM164.512 30.9817L162.058 32.2807V30.4075L164.512 29.1587L166.967 30.4075V32.2807L164.512 30.9817Z" fill="white"/>
</svg>
