<svg width="213" height="213" viewBox="0 0 213 213" fill="none" xmlns="http://www.w3.org/2000/svg">
<mask id="mask0_330_702" style="mask-type:alpha" maskUnits="userSpaceOnUse" x="26" y="35" width="161" height="142">
<path d="M139.927 39.8813C145.408 39.8814 150.835 40.9572 155.899 43.0464C160.963 45.1354 165.565 48.1974 169.442 52.0591L170.16 52.7905C173.702 56.4936 176.531 60.8194 178.5 65.5513C180.6 70.5985 181.681 76.0096 181.681 81.4741C181.681 86.9385 180.6 92.3489 178.5 97.396C176.531 102.128 173.702 106.454 170.16 110.157L169.442 110.888L162.252 118.047L109.474 170.595C107.745 172.317 104.95 172.317 103.221 170.595L50.4441 118.047L43.2537 110.888C35.4219 103.09 31.0183 92.5093 31.0183 81.4731C31.0184 70.4372 35.422 59.8568 43.2537 52.0591C51.0848 44.262 61.7027 39.8853 72.7693 39.8853C83.8357 39.8853 94.4529 44.2621 102.284 52.0591L106.347 56.105L110.412 52.0591C114.289 48.1973 118.892 45.1355 123.956 43.0464C129.02 40.9572 134.447 39.8813 139.927 39.8813Z" fill="#D9D9D9" stroke="#348E2B" stroke-width="8.8625" stroke-linecap="round" stroke-linejoin="round"/>
</mask>
<g mask="url(#mask0_330_702)">
<mask id="path-2-outside-1_330_702" maskUnits="userSpaceOnUse" x="79.1946" y="70.3323" width="50" height="65" fill="black">
<rect fill="white" x="79.1946" y="70.3323" width="50" height="65"/>
<path d="M104.135 75.3323C115.873 79.9775 124.076 90.5838 124.076 102.927C124.076 115.27 115.873 125.876 104.135 130.522C92.3978 125.876 84.1946 115.27 84.1946 102.927C84.1947 90.5839 92.3977 79.9776 104.135 75.3323Z"/>
</mask>
<path d="M104.135 75.3323C115.873 79.9775 124.076 90.5838 124.076 102.927C124.076 115.27 115.873 125.876 104.135 130.522C92.3978 125.876 84.1946 115.27 84.1946 102.927C84.1947 90.5839 92.3977 79.9776 104.135 75.3323Z" fill="#6A8E4E"/>
<path d="M104.135 75.3323L105.766 71.212L104.135 70.5666L102.504 71.212L104.135 75.3323ZM124.076 102.927H128.508V102.927L124.076 102.927ZM104.135 130.522L102.504 134.642L104.135 135.287L105.766 134.642L104.135 130.522ZM84.1946 102.927L79.7633 102.927V102.927H84.1946ZM104.135 75.3323L102.504 79.4526C112.811 83.5315 119.645 92.6654 119.645 102.927L124.076 102.927L128.508 102.927C128.508 88.5021 118.934 76.4235 105.766 71.212L104.135 75.3323ZM124.076 102.927H119.645C119.645 113.189 112.811 122.322 102.504 126.401L104.135 130.522L105.766 134.642C118.934 129.43 128.508 117.352 128.508 102.927H124.076ZM104.135 130.522L105.766 126.401C95.4595 122.322 88.6258 113.189 88.6258 102.927H84.1946H79.7633C79.7633 117.352 89.3361 129.43 102.504 134.642L104.135 130.522ZM84.1946 102.927L88.6258 102.927C88.6259 92.6655 95.4595 83.5315 105.766 79.4526L104.135 75.3323L102.504 71.212C89.336 76.4237 79.7635 88.5024 79.7633 102.927L84.1946 102.927Z" fill="#F5F5F5" mask="url(#path-2-outside-1_330_702)"/>
<mask id="path-4-outside-2_330_702" maskUnits="userSpaceOnUse" x="72.6345" y="70.4191" width="113.488" height="125.567" fill="black">
<rect fill="white" x="72.6345" y="70.4191" width="113.488" height="125.567"/>
<path d="M152.745 92.4221C164.29 108.154 166.136 129.927 155.703 147.998C145.27 166.068 125.493 175.356 106.096 173.225C94.5517 157.493 92.7062 135.72 103.139 117.65C113.572 99.5799 133.349 90.2916 152.745 92.4221Z"/>
</mask>
<path d="M152.745 92.4221C164.29 108.154 166.136 129.927 155.703 147.998C145.27 166.068 125.493 175.356 106.096 173.225C94.5517 157.493 92.7062 135.72 103.139 117.65C113.572 99.5799 133.349 90.2916 152.745 92.4221Z" fill="#6A8E4E"/>
<path d="M152.745 92.4221L156.317 89.8005L155.165 88.23L153.229 88.0174L152.745 92.4221ZM155.703 147.998L159.54 150.214L159.54 150.214L155.703 147.998ZM106.096 173.225L102.524 175.847L103.676 177.417L105.613 177.63L106.096 173.225ZM103.139 117.65L99.3018 115.434L99.3018 115.434L103.139 117.65ZM152.745 92.4221L149.172 95.0438C159.708 109.401 161.394 129.278 151.865 145.783L155.703 147.998L159.54 150.214C170.878 130.576 168.872 106.908 156.317 89.8005L152.745 92.4221ZM155.703 147.998L151.865 145.783C142.337 162.286 124.281 170.765 106.58 168.821L106.096 173.225L105.613 177.63C126.705 179.947 148.203 169.85 159.54 150.214L155.703 147.998ZM106.096 173.225L109.669 170.604C99.1337 156.247 97.4482 136.37 106.977 119.865L103.139 117.65L99.3018 115.434C87.9643 135.071 89.9698 158.739 102.524 175.847L106.096 173.225ZM103.139 117.65L106.977 119.865C116.505 103.362 134.561 94.8826 152.261 96.8269L152.745 92.4221L153.229 88.0174C132.137 85.7006 110.639 95.798 99.3018 115.434L103.139 117.65Z" fill="#F5F5F5" mask="url(#path-4-outside-2_330_702)"/>
<mask id="path-6-outside-3_330_702" maskUnits="userSpaceOnUse" x="32.9065" y="77.4439" width="102.785" height="109.272" fill="black">
<rect fill="white" x="32.9065" y="77.4439" width="102.785" height="109.272"/>
<path d="M64.681 96.9332C79.7292 95.4802 95.1771 101.929 104.663 115.193C116.103 131.188 115.357 152.184 104.236 167.009C89.1888 168.461 73.7419 162.014 64.2562 148.75C52.8165 132.754 53.5602 111.758 64.681 96.9332Z"/>
</mask>
<path d="M64.681 96.9332C79.7292 95.4802 95.1771 101.929 104.663 115.193C116.103 131.188 115.357 152.184 104.236 167.009C89.1888 168.461 73.7419 162.014 64.2562 148.75C52.8165 132.754 53.5602 111.758 64.681 96.9332Z" fill="#6A8E4E"/>
<path d="M64.681 96.9332L64.2551 92.5225L62.3093 92.7103L61.1362 94.2741L64.681 96.9332ZM104.663 115.193L108.268 112.615L108.268 112.615L104.663 115.193ZM104.236 167.009L104.662 171.419L106.608 171.231L107.781 169.668L104.236 167.009ZM64.2562 148.75L60.6519 151.328L64.2562 148.75ZM64.681 96.9332L65.1069 101.344C78.6324 100.038 92.5225 105.834 101.059 117.77L104.663 115.193L108.268 112.615C97.8317 98.0228 80.8261 90.9224 64.2551 92.5225L64.681 96.9332ZM104.663 115.193L101.059 117.77C111.354 132.166 110.674 151.043 100.692 164.349L104.236 167.009L107.781 169.668C120.041 153.325 120.851 130.211 108.268 112.615L104.663 115.193ZM104.236 167.009L103.811 162.598C90.2855 163.903 76.3964 158.108 67.8605 146.172L64.2562 148.75L60.6519 151.328C71.0874 165.92 88.092 173.019 104.662 171.419L104.236 167.009ZM64.2562 148.75L67.8605 146.172C57.5648 131.776 58.244 112.899 68.2258 99.5923L64.681 96.9332L61.1362 94.2741C48.8764 110.618 48.0681 133.733 60.6519 151.328L64.2562 148.75Z" fill="#F5F5F5" mask="url(#path-6-outside-3_330_702)"/>
<path d="M139.927 39.8813C145.408 39.8814 150.835 40.9572 155.899 43.0464C160.963 45.1354 165.565 48.1974 169.442 52.0591L170.16 52.7905C173.702 56.4936 176.531 60.8194 178.5 65.5513C180.6 70.5985 181.681 76.0096 181.681 81.4741C181.681 86.9385 180.6 92.3489 178.5 97.396C176.531 102.128 173.702 106.454 170.16 110.157L169.442 110.888L162.252 118.047L109.474 170.595C107.745 172.317 104.95 172.317 103.221 170.595L50.4441 118.047L43.2537 110.888C35.4219 103.09 31.0183 92.5093 31.0183 81.4731C31.0184 70.4372 35.422 59.8568 43.2537 52.0591C51.0848 44.262 61.7027 39.8853 72.7693 39.8853C83.8357 39.8853 94.4529 44.2621 102.284 52.0591L106.347 56.105L110.412 52.0591C114.289 48.1973 118.892 45.1355 123.956 43.0464C129.02 40.9572 134.447 39.8813 139.927 39.8813Z" stroke="#2C473E" stroke-width="8.8625" stroke-linecap="round" stroke-linejoin="round"/>
</g>
</svg>
