<svg width="213" height="213" viewBox="0 0 213 213" fill="none" xmlns="http://www.w3.org/2000/svg">
<path d="M93.3453 46.0718C98.7419 40.4864 107.047 40.7558 111.966 46.6372C124.055 61.0906 142.166 88.1442 149.945 127.277C152.703 141.154 147.507 151.145 138.152 157.931C128.519 164.918 114.334 168.529 99.7545 168.408C85.1799 168.286 70.963 164.44 61.2965 157.371C51.8789 150.483 46.7525 140.604 49.484 127.305C57.4467 88.5391 79.2157 60.6959 93.3453 46.0718Z" fill="#F5F5F5" stroke="#2C473E" stroke-width="8.86373"/>
<path d="M137.192 89.9636C142.178 84.5219 150.049 84.8006 154.544 90.5251C162.376 100.498 172.242 116.677 176.806 138.836C177.704 143.196 177.25 146.753 175.984 149.672C174.706 152.619 172.475 155.195 169.4 157.348C163.158 161.718 153.814 164.056 144.071 163.977C134.334 163.899 124.961 161.412 118.687 156.984C115.59 154.799 113.354 152.22 112.078 149.321C110.819 146.46 110.376 143.024 111.261 138.864C115.967 116.754 127.897 100.107 137.192 89.9636Z" fill="#6A8E4E" stroke="#F5F5F5" stroke-width="8.86373"/>
<path d="M93.0697 150.683C64.2628 150.684 62.048 135.047 73.1272 115.228" stroke="#6A8E4E" stroke-width="8.86373" stroke-linecap="round"/>
</svg>
