<svg width="213" height="213" viewBox="0 0 213 213" fill="none" xmlns="http://www.w3.org/2000/svg">
<path d="M185.442 53.1826L169.418 162.687C167.276 177.321 154.724 188.169 139.934 188.169H72.7959C58.0056 188.169 45.4532 177.32 43.3116 162.686L27.2862 53.1826H185.442Z" fill="#F5F5F5" stroke="#2C473E" stroke-width="8.86373" stroke-linecap="round"/>
<path d="M144.066 93.0698C130.753 93.2294 117.767 99.8789 109.615 112.049C101.476 124.2 99.9833 139.11 104.291 152.081L105.312 155.154L108.551 155.116C121.864 154.956 134.85 148.307 143.002 136.136C151.141 123.985 152.633 109.076 148.326 96.105L147.305 93.0308L144.066 93.0698Z" fill="#6A8E4E" stroke="#2C473E" stroke-width="8.86373"/>
<path d="M73.4225 119.58C82.2862 120.649 90.738 125.533 96.3346 133.889C101.98 142.317 103.527 152.51 101.377 161.838C92.5135 160.768 84.0618 155.885 78.4655 147.53C72.8198 139.102 71.272 128.908 73.4225 119.58Z" fill="#6A8E4E" stroke="#2C473E" stroke-width="8.86373"/>
<path d="M108.833 172.843C108.833 172.843 103.279 165.859 108.833 154.588C114.387 143.318 118.87 133.37 128.524 128.524" stroke="#2C473E" stroke-width="8.86373" stroke-linecap="round"/>
<ellipse cx="106.365" cy="48.7506" rx="31.0231" ry="84.2055" transform="rotate(90 106.365 48.7506)" fill="#F5F5F5"/>
<path d="M106.365 39.8872C142.274 39.8873 172.933 48.1691 185.04 59.8306C172.933 71.492 142.274 79.7739 106.365 79.7739C70.4552 79.7739 39.795 71.4924 27.6882 59.8306C39.7949 48.1687 70.4551 39.8872 106.365 39.8872Z" fill="#6A8E4E"/>
<path d="M186.138 49.3047C186.138 51.942 184.729 54.9847 181.012 58.2793C177.302 61.5694 171.679 64.7353 164.35 67.4834C149.727 72.9673 129.227 76.4502 106.365 76.4502C83.5032 76.4502 63.0027 72.9673 48.3787 67.4834C41.0504 64.7353 35.4275 61.5694 31.7166 58.2793C28.0007 54.9847 26.5907 51.9419 26.5906 49.3047C26.5906 46.6674 28.0005 43.6238 31.7166 40.3291C35.4275 37.0391 41.0505 33.874 48.3787 31.126C63.0027 25.642 83.5032 22.1592 106.365 22.1592C129.227 22.1592 149.727 25.6421 164.35 31.126C171.679 33.874 177.302 37.0391 181.012 40.3291C184.729 43.6238 186.138 46.6674 186.138 49.3047Z" stroke="#2C473E" stroke-width="8.86373"/>
</svg>
