<svg width="125" height="173" viewBox="0 0 125 173" fill="none" xmlns="http://www.w3.org/2000/svg">
<path d="M53.463 133.056C57.3789 130.843 62.149 130.759 66.1398 132.834C68.2754 133.945 79.1565 139.603 83.3693 141.793C86.5932 140.912 90.1977 141.008 93.3351 142.075L111.955 148.411C114.633 149.323 116.938 150.853 118.343 153.089C119.804 155.414 120.03 158.12 119.117 160.564C117.358 165.274 112.131 167.787 106.512 167.787H17.5802C12.0473 167.787 6.89418 165.345 5.05191 160.762C4.09403 158.379 4.22244 155.698 5.59683 153.346C6.91949 151.082 9.15483 149.509 11.7609 148.545L28.8908 142.209C31.8462 141.116 35.2515 140.908 38.3752 141.583L53.463 133.056Z" fill="#F5F5F5" stroke="#2C473E" stroke-width="8.86373"/>
<path d="M110.031 19.4219C96.1125 20.3224 82.6587 27.6102 73.9677 40.585C65.2439 53.609 63.2442 69.5006 67.2441 83.7002C81.1626 82.7994 94.6167 75.512 103.308 62.5371C112.031 49.513 114.031 33.6214 110.031 19.4219Z" fill="#6A8E4E" stroke="#6A8E4E" stroke-width="6.44635"/>
<path d="M65.5461 77.4764C65.6702 74.4707 67.5721 71.2606 69.3708 68.7927C72.8876 63.9677 77.6074 60.0754 81.7423 55.7036C85.1235 52.1287 89.3524 49.2276 92.6972 45.6644C93.8283 44.4594 95.7876 43.4237 96.5691 42.0215" stroke="#2C473E" stroke-width="8.86373" stroke-linecap="round"/>
<path d="M17.0205 3.5705C37.0488 5.08914 56.0122 16.3463 67.1755 35.5531C78.3302 54.7452 79.1648 77.5047 71.3692 96.7801L70.4863 98.9636L68.1374 98.7855C48.1091 97.267 29.1458 86.0105 17.9823 66.8039C6.82739 47.6115 5.99297 24.8515 13.7887 5.5759L14.6717 3.39232L17.0205 3.5705Z" fill="#6A8E4E" stroke="#F5F5F5" stroke-width="6.44635"/>
<path d="M44.5456 51.5615C45.6386 52.5715 46.4345 53.952 47.3005 55.1469C49.8124 58.6132 52.4171 62.0695 54.6831 65.7034C56.7395 69.0013 58.5487 72.3749 60.2704 75.8521C63.3136 81.9982 66.578 89.3938 66.4524 96.3898C66.3657 101.217 66.3274 105.872 65.526 110.659C65.0539 113.478 64.545 116.272 63.9927 119.073C63.6131 120.999 63.5136 122.999 63.046 124.89C62.8871 125.532 62.0864 128.393 62.6076 128.853" stroke="#2C473E" stroke-width="8.86373" stroke-linecap="round"/>
<path d="M44.7417 49.1777C44.7417 47.7213 45.1391 46.3231 45.4459 44.91C45.6187 44.1142 45.7633 43.3145 45.9438 42.5201C46.1917 41.4294 46.2241 40.3073 46.4666 39.2161C46.7296 38.0326 46.9005 36.8371 47.1992 35.6597C47.3441 35.0887 47.4618 34.5104 47.5869 33.9349C47.6357 33.7101 47.7505 33.4696 47.7505 33.2378" stroke="#2C473E" stroke-width="8.86373" stroke-linecap="round"/>
<path d="M43.2694 50.7137C42.3335 50.6777 41.4067 50.1958 40.4954 50.0095C39.348 49.775 38.2016 49.5031 37.0599 49.2414C36.2226 49.0494 35.4215 48.6949 34.6131 48.4091C34.1802 48.2561 33.7255 48.1613 33.2865 48.0251C33.0831 47.9619 32.8597 47.833 32.6428 47.833" stroke="#2C473E" stroke-width="8.86373" stroke-linecap="round"/>
</svg>
