<svg width="213" height="213" viewBox="0 0 213 213" fill="none" xmlns="http://www.w3.org/2000/svg">
<path d="M106.365 31.0234C138.185 31.0236 163.98 56.8183 163.98 88.6377C163.98 110.872 151.383 130.154 132.956 139.758V159.547C132.956 166.89 127.003 172.843 119.66 172.843H93.0695C85.7266 172.843 79.7736 166.89 79.7736 159.547V139.758C61.3464 130.154 48.7512 110.872 48.7512 88.6377C48.7512 56.8182 74.5459 31.0234 106.365 31.0234Z" stroke="#2C473E" stroke-width="8.86373"/>
<path d="M106.366 110.797L106.366 150.684" stroke="#2C473E" stroke-width="8.86373" stroke-linecap="round"/>
<path d="M89.5828 75.3423C95.99 75.4191 102.207 78.6215 106.088 84.4145C109.955 90.1881 110.653 97.2527 108.616 103.386L107.595 106.459L104.357 106.42C97.95 106.344 91.7336 103.141 87.8533 97.3481C83.9862 91.5747 83.2872 84.5109 85.324 78.3774L86.3445 75.3032L89.5828 75.3423Z" fill="#6A8E4E" stroke="#2C473E" stroke-width="8.86373"/>
<path d="M126.517 75.3423C120.11 75.4191 113.892 78.6215 110.012 84.4145C106.145 90.1881 105.447 97.2527 107.484 103.386L108.504 106.459L111.742 106.42C118.15 106.344 124.366 103.141 128.246 97.3481C132.113 91.5747 132.812 84.5109 130.776 78.3774L129.755 75.3032L126.517 75.3423Z" fill="#6A8E4E" stroke="#2C473E" stroke-width="8.86373"/>
<path d="M84.2061 155.115H128.525" stroke="#2C473E" stroke-width="8.86373" stroke-linecap="round"/>
</svg>
